{"title":"Epic 2013 WEBRip Ac3 Feel-Free","uid":8785788,"size":1264015162,"categoryP":"video","categoryS":"movies","magnet":"?xt=urn:btih:46832b9ecdfafa4031a686c29f86faff3f4d85ec&amp;dn=Epic+2013+WEBRip+Ac3+Feel-Free&amp;tr=udp%3A%2F%2Ftracker.openbittorrent.com%3A80&amp;tr=udp%3A%2F%2Fopen.demonii.com%3A1337&amp;tr=udp%3A%2F%2Ftracker.coppersurfer.tk%3A6969&amp;tr=udp%3A%2F%2Fexodus.desync.com%3A6969","seeders":2,"leechers":0,"uploader":"SaM","files":8,"time":1375827168,"description":"Genre:Animation | Adventure | Family\nLanguage:English\nIMDb:http://www.imdb.com/title/tt0848537/\nSource:1080p.WEB-DL.H264 Thanks\nSample:Never\nEncoder:Tony\n\nFormat : AVI\nFormat/Info : Audio Video Interleave\nFile size : 1.18 GiB\nDuration : 1h 42mn\nOverall bit rate : 1 636 Kbps\n\nVideo\nID : 0\nFormat : MPEG-4 Visual\nFormat profile : Advanced Simple@L5\nFormat settings, BVOP : 1\nFormat settings, QPel : No\nFormat settings, GMC : No warppoints\nFormat settings, Matrix : Default (H.263)\nCodec ID : XVID\nCodec ID/Hint : XviD\nDuration : 1h 42mn\nBit rate : 1 244 Kbps\nWidth : 640 pixels\nHeight : 264 pixels\nDisplay aspect ratio : 2.40:1\nFrame rate : 23.976 fps\nColor space : YUV\nChroma subsampling : 4:2:0\nBit depth : 8 bits\nScan type : Progressive\nCompression mode : Lossy\nBits/(Pixel*Frame) : 0.307\nStream size : 916 MiB (76%)\nWriting library : XviD 1.2.1 (UTC 2008-12-04)\n\nAudio\nID : 1\nFormat : AC-3\nFormat/Info : Audio Coding 3\nMode extension : CM (complete main)\nCodec ID : 2000\nDuration : 1h 42mn\nBit rate mode : Constant\nBit rate : 384 Kbps\nChannel(s) : 6 channels\nChannel positions : Front: L C R, Side: L R, LFE\nSampling rate : 48.0 KHz\nBit depth : 16 bits\nCompression mode : Lossy\nStream size : 281 MiB (23%)\nAlignment : Aligned on interleaves\nInterleave, duration : 42 ms (1.00 video frame)\nInterleave, preload duration : 512 ms\n &lt;a href=&quot;\nhttp://img856.imageshack.us/img856/2818/xcq7.png&quot; rel=&quot;nofollow&quot; target=&quot;_NEW&quot;&gt;\nhttp://img856.imageshack.us/img856/2818/xcq7.png&lt;/a&gt;\n &lt;a href=&quot;\nhttp://img542.imageshack.us/img542/2131/udi1.png&quot; rel=&quot;nofollow&quot; target=&quot;_NEW&quot;&gt;\nhttp://img542.imageshack.us/img542/2131/udi1.png&lt;/a&gt;\n &lt;a href=&quot;\nhttp://img62.imageshack.us/img62/3272/qw76.png&quot; rel=&quot;nofollow&quot; target=&quot;_NEW&quot;&gt;\nhttp://img62.imageshack.us/img62/3272/qw76.png&lt;/a&gt;\n\nGreets:\nCRYS,INSPiRAL,IMAGINE,LKRG,ADTRG,FXG,3Li,FLAWL3SS,CrEwSaDe,TA,iLLUSiON,EMBER,HOPE,GooN,BBnRG,NOGRP,ETRG,BHRG,iLLUMiNATi,MiSTERE.ViSiON,DTRG SAFCuk009,LU,TheFalcon007,MYSTiC,PrisM,Noir,WBZ,LAP,Rx,Kingdom,SAFCuk009+Fabreezy,HDLiTE,TWiZTED,ETRG.ELEKTRI4KA,MAGNAT,CM8\nAnd to all the other p2p grps past and present\n\n\n\nMake sure its a real Feel-Free release @ http://extratorrent.com\nThanks to all who promotes release Feel-Free !!!","torrent":{"xt":"urn:btih:46832b9ecdfafa4031a686c29f86faff3f4d85ec","amp;dn":"Epic+2013+WEBRip+Ac3+Feel-Free","amp;tr":["udp%3A%2F%2Ftracker.openbittorrent.com%3A80","udp%3A%2F%2Fopen.demonii.com%3A1337","udp%3A%2F%2Ftracker.coppersurfer.tk%3A6969","udp%3A%2F%2Fexodus.desync.com%3A6969"],"infoHash":"46832b9ecdfafa4031a686c29f86faff3f4d85ec","infoHashBuffer":{"type":"Buffer","data":[70,131,43,158,205,250,250,64,49,166,134,194,159,134,250,255,63,77,133,236]},"announce":[],"urlList":[]}}